PathFileType	4	(X/Y/Z)	Patient5_TMGait_0pt45_1_right_11.trc.trc
DataRate	CameraRate	NumFrames	NumMarkers	Units	OrigDataRate	OrigDataStartFrame	OrigNumFrames
64.814814814815	64.814814814815	4	32	mm	64.814814814815	106	       141
Frame#	Time	R.ASIS			L.ASIS			Chest			R.Shoulder			Neck			L.Shoulder			L.Elbow			L.Wrist			R.Elbow			R.Wrist			L.Thigh.Superior			L.Thigh.Lateral			L.Thigh.Inferior			L.Patella			L.Shank.Superior			L.Shank.Lateral			L.Shank.Inferior			L.Heel			L.Midfoot.Lateral			L.Midfoot.Superior			L.Toe			R.Thigh.Superior			R.Thigh.Lateral			R.Thigh.Inferior			R.Patella			R.Shank.Superior			R.Shank.Lateral			R.Shank.Inferior			R.Heel			R.Midfoot.Lateral			R.Midfoot.Superior			R.Toe			
		X1	Y1	Z1	X2	Y2	Z2	X3	Y3	Z3	X4	Y4	Z4	X5	Y5	Z5	X6	Y6	Z6	X7	Y7	Z7	X8	Y8	Z8	X9	Y9	Z9	X10	Y10	Z10	X11	Y11	Z11	X12	Y12	Z12	X13	Y13	Z13	X14	Y14	Z14	X15	Y15	Z15	X16	Y16	Z16	X17	Y17	Z17	X18	Y18	Z18	X19	Y19	Z19	X20	Y20	Z20	X21	Y21	Z21	X22	Y22	Z22	X23	Y23	Z23	X24	Y24	Z24	X25	Y25	Z25	X26	Y26	Z26	X27	Y27	Z27	X28	Y28	Z28	X29	Y29	Z29	X30	Y30	Z30	X31	Y31	Z31	X32	Y32	Z32	

106	19.690000000000	1031.778267401011	1023.702884549793	533.569037485710	1059.260837561964	964.068342745171	288.653386522380	1114.796089043665	1444.837943369038	419.394173141515	975.799261762606	1515.212076068294	551.912112645076	1007.150855131613	1572.558325268196	369.708345651032	1118.651647684362	1511.524294048972	218.378330868567	1143.710727980224	1184.997142043393	94.613802099340	1286.740578642221	946.013209671743	175.938981958618	846.724192644905	1200.631014375529	666.814504316428	1072.526952154082	1017.767565000789	656.753055932799	1056.497394988580	736.460730002971	300.303204716304	980.281654584547	673.349116097606	256.942854832116	1036.039464712662	610.619014450442	329.654424688573	1022.028809737154	498.679938843780	339.502445620275	968.434865471578	400.566364610779	359.233842137404	905.413825556550	331.739772060708	278.510968824117	927.894162326106	279.838017629746	369.789313837875	782.571909734043	51.433634177155	369.527260342964	872.252306636831	27.905365380912	311.247856132910	967.961777085745	88.190521280354	358.562227787760	1076.073444081748	43.939374542384	363.519917809048	1107.405677654404	826.064197014214	573.023288912710	1055.367410385499	738.856731841102	643.275329111111	1153.141582721235	705.634815707732	580.735941266223	1187.521763048544	614.405467564177	630.394454000656	1153.983612853123	499.049152045124	602.205747096724	1077.262372724068	433.981998888543	682.523240260360	1141.162881763908	359.567454825122	611.546099444280	1029.468813875410	133.060000863221	590.817883550624	1103.634915679099	98.891136672374	667.372696376566	1209.245891965362	166.933287380698	658.931111754744	1312.886564295443	124.245251777417	662.188333147126	
107	19.705428571429	1032.254569699067	1022.358558676228	533.747918875767	1056.821936673290	963.854357754118	287.916725868239	1111.707433764300	1444.659473841591	419.731661543481	973.384184638453	1514.219748877941	553.555636938446	1003.211905863154	1572.066939538113	371.279374076046	1113.709659587205	1511.829256990206	218.913022097899	1140.067827447361	1184.989348017548	96.048607762857	1283.433364524031	946.629744887382	178.650547843009	844.222059150839	1199.842422659121	668.786606911167	1069.407142495635	1016.283014116771	658.219251283291	1053.153986195684	735.621057001181	299.344062126592	976.460427246676	672.878376498835	256.764761217849	1032.326754658178	609.920683548512	328.990394057706	1017.405938505559	497.994910241513	338.860531433707	963.274966701615	400.156851441664	359.042055088196	899.470420285642	331.784153519950	278.571133569927	922.129139988287	279.660964638007	369.719018262014	775.647841564121	51.598323572587	369.640730192955	865.265757127647	27.988153632872	311.350513471822	961.021213507309	88.329061695871	358.451956421229	1069.095582839544	43.921819000447	363.491719499302	1108.988793341765	824.427976253571	569.146439516466	1058.192109393379	737.556775026484	641.971275488468	1154.517812700743	704.279511622260	577.435370339173	1189.987051042255	613.236462458235	626.615616218618	1156.204568784780	497.777437786982	599.300753267610	1081.364244688493	432.575536625189	681.136711838040	1144.149338760345	358.300027692074	609.030291873095	1032.862953788138	131.328218946124	590.608533359402	1108.719722748602	97.499756431710	665.733417553968	1213.813814587523	166.137950407188	655.197089777825	1317.771867639783	124.016239066623	656.479360117839	
108	19.720857142857	1032.756403226312	1020.871018005485	533.749811459137	1054.446723611133	963.518468870061	287.309765199977	1108.709960367634	1444.441859906587	420.133619490845	971.200505160037	1513.092983167044	555.370844186535	999.300435126582	1571.485022377157	372.995736712505	1108.613254056433	1512.118034732253	219.487149786778	1135.917409909944	1184.996338040412	97.303998277869	1279.778643581292	947.328803445091	181.065262956544	842.239124207995	1198.894403796424	671.194209747433	1066.540747311857	1014.351359361939	659.706256700375	1050.046086362508	734.856403673570	298.631213962331	972.806242982812	672.379676183237	256.662445121001	1028.742273781465	609.225816467522	328.440970949718	1012.932787432240	497.231743500251	338.328681310908	958.199364996938	399.696332821630	358.923925773134	893.652874461410	331.798250543564	278.676230510260	916.429555999023	279.454100512204	369.713118945871	768.725560331622	51.742118141405	369.774008089208	858.285390455875	28.075628812356	311.454382027126	954.077129643158	88.428341377025	358.377625555785	1062.120312655890	43.917197761148	363.456660230229	1110.163562891212	822.286037578955	565.954043986186	1060.189436042005	735.723060000764	640.639551468356	1155.125066068206	702.239107104034	574.306267140038	1191.340484557378	611.303980110539	622.955838965249	1157.430638862373	495.870588585775	596.424908672332	1084.358759742168	430.495514039050	679.539747678080	1146.236188731627	356.410286065737	606.503167483738	1035.705216814171	128.892708747750	590.017720265389	1112.956300450081	95.522180314413	663.963081158326	1217.499823752002	164.766109213117	651.705836721945	1321.736829721861	123.233001117521	651.439233961933	
109	19.736285714286	1033.237372388744	1019.239532072396	533.563987447064	1052.149188257184	963.081584483706	286.859634104021	1105.817931174137	1444.180984659851	420.618145164423	969.246541705354	1511.849334931214	557.352189704293	995.438426899674	1570.817891444101	374.860322771197	1103.407965561796	1512.361394448770	220.116927365556	1131.292687733397	1184.993009061252	98.377922052801	1275.783049757927	948.047804305018	183.122420370325	840.783570728539	1197.797169795234	674.003145200004	1064.013168362693	1012.081850876004	661.189744768012	1047.160704029722	734.156611541174	298.186035926956	969.316764859746	671.858621050822	256.638887858864	1025.248682024498	608.530163834575	328.032321023798	1008.571140880820	496.394680999000	337.924346504081	953.190534190720	399.195562473695	358.871648068769	887.944639456817	331.781718826332	278.823019010353	910.769114543227	279.225092017443	369.762602253296	761.801904253750	51.866141013259	369.923465828406	851.308473173914	28.169934170238	311.558295024233	947.124518890120	88.483410368380	358.342683229247	1055.144326251487	43.923556489075	363.416339917091	1110.914186954153	819.704578115216	563.567561448994	1061.333597778724	733.372342259588	639.296703264477	1154.993548885282	699.567124539376	571.399315018614	1191.594368507813	608.667363915999	619.483063826612	1157.711503942303	493.391351685189	593.608601329082	1086.259701578244	427.770581395762	677.750477460650	1147.473758546094	353.947470042633	603.968220558371	1038.038560200376	125.802505072768	588.999673065580	1116.395402877932	92.985957404578	662.027473092216	1220.365149795041	162.860819143204	648.425676049998	1324.857277045986	121.951382571685	647.011333491272	
